<svg id="Слой_x0020_1" xmlns="http://www.w3.org/2000/svg" width="291.08" height="95.318" viewBox="0 0 291.08 95.318">
  <g id="_2809457943920" transform="translate(0 0)">
    <path id="Контур_3158" data-name="Контур 3158" d="M111.782,83.147c-10.831-6.977-25.531-8.2-49.236-1.624-25.272,5.938-33.7,9.746-44.765,2.1-4.251-3.755-5.776-9.8-4.637-18.506,2.641-14.192,9.773-27.853,22.445-43,7.074-7.882,13.633-14.646,22.3-17.361,6.64-1.7,6.018,3.514,5.217,4.26a6.428,6.428,0,0,0-3.373.853c-.894.692-3.346,2.928-3.476,5.937-.189,4.606,4.577,3.647,6.634,1.118C65.1,14.073,68.378,8.614,65.8,3.53A7.567,7.567,0,0,0,60.54.042C52.607-.412,45.221,3.37,38.4,7.551,23.492,17.911,11.563,32.263,4.813,47.973.921,57.452-2.6,71.034,2.677,82.084c4.08,7.669,12.551,11.742,22.659,10.891C32.425,92.23,41,89.94,46.761,88.556s35.277-11.529,44.974,6.126a13.094,13.094,0,0,1,11.282-6.391c6.625-.613,16.182,1.918,23.141,7.031-2.318-3.487-8.891-8.628-14.377-12.169Z" transform="translate(-0.006 -0.005)" fill="#e31e24" fill-rule="evenodd"/>
    <path id="Контур_3159" data-name="Контур 3159" d="M171.533,103.029c-5.52-3.62-16.613,3.3-25.5,15.178-8.125,10.651-11.632,23.034-7.815,28.76,5.681,6.737,16.225-3.063,20.709-8.309l.577-.613a65.377,65.377,0,0,0,7.687-11s2.1-3.463,2.2-3.622c1.3-.24,2.854-.613,4.615-1.118-.025.079-6.726,11.343-6.043,16.934.213,1.7.049,7.936,6.135,9.825,8.107,1.359,14.583-4.927,20.294-10.519,0,0,.972-.932,1.525-1.464-.139.559-.321,1.3-.321,1.3-2.374,8.255.824,9.986,2.827,10.624,6.05,1.758,13.276-7.029,13.3-7.029-.186,2.769-.734,5.059,2.183,6.9,2.753.986,5.542-.478,7.66-1.891,7.633-5.381,13.779-13.847,18.747-21.037h-3.169c-.038.054-7.817,11.237-12.868,13.687-.009,0-.927.454-1.457.079-.656-.559-.4-1.81.009-2.634.027-.054,19.5-33.925,19.5-33.925h-9.2s-1,1.7-1.087,1.81c-.063-.054-.209-.292-.312-.427-5.7-7.882-18.6,4.26-28.315,18.32-3.739,5.405-8.5,11.5-13.44,15.9,0,0-7.314,6.71-10.44,1.891-1.143-2.026-.793-4.981-.148-6.923,3.638-10.357,9.908-19.757,17.044-25.43,2.014-1.57,4.2-2.023,5.291-1.356a2.309,2.309,0,0,1,.548,3.169,5.12,5.12,0,0,0-4.074,1.572c-2.133,2.237-2.874,4.395-2.2,6.418,3.292,4.687,9.861-4.581,9.544-10.227a6.066,6.066,0,0,0-2.8-4.873c-2.4-1.439-6.065-1.064-8.437.081-3.175,1.2-8.2,5.378-11.132,8.628-3.692,4.074-10.025,8.6-12.005,8.093.649-1.731,6-12.674.37-16.775Zm44.338,16.189a128.013,128.013,0,0,1,8.266-10.224c4.269-3.755,5.976-2.1,6.124-.932-3.986,7.137-8.688,15.311-13.108,22.661.009-.027-1.383,2.1-1.383,2.1-1.954,2.982-3.919,5.538-7.128,7.323a2.081,2.081,0,0,1-1.713-.186,1.816,1.816,0,0,1-.775-1.758c.193-2.291,2.524-9.295,9.717-18.987Zm-50.031,4.289s-.079.24-.119.319c-.011,0-4.008,6.524-4.008,6.524-2.414,3.22-5.428,7.269-9.2,9.214-1.116.373-2.659.611-3.447-.373-1.666-2-.808-4.768-.11-7l.247-.8c2-5.43,5.178-10.224,8.271-14.671a.382.382,0,0,1,.155-.052.19.19,0,0,1,.027.079c1.94,3.728,5.578,5.459,8.3,6.259.016,0,.034.027.034.079a1.359,1.359,0,0,1-.15.427Zm3.788-7.7c-.016.054-1.781,4.1-1.781,4.1-.256.211-.658.106-1.121,0l-.79-.135a7.106,7.106,0,0,1-4.94-4.392c-.8-3.836,2.479-6.845,3.921-7.934,1.383-.961,3.537-1.464,4.788-.478a5.032,5.032,0,0,1,1.064,3.355,18.2,18.2,0,0,1-1.141,5.484Z" transform="translate(-105.984 -79.136)" fill="#e31e24" fill-rule="evenodd"/>
    <path id="Контур_3160" data-name="Контур 3160" d="M640.257,49.815a5.415,5.415,0,0,0-5.237-3.009c-7.285.667-14.413,6.658-18.154,15.259a43.88,43.88,0,0,0-3.739,13.874A38.375,38.375,0,0,1,625.258,66.7a25.257,25.257,0,0,1,4.352-10.519c1.377-2.05,4.132-5.354,7.227-4.473,2.7.9,1.752,8.387-1.839,15.632a50.251,50.251,0,0,1-10.842,14.327c-3.638,3.088-9.021,6.816-13.732,3.941-2.967-1.756-4.48-5.432-4.161-10.173,1.419-13.447,7.539-24.9,16.3-37.945,9.034-12.115,18.987-24.552,32.4-31.181,2.735-1.386,5.271-1.7,7.46-.853,0,0-12.591,6.923-18.594,19.732-1.525,3.249-3.649,7.642-1.511,11.529,1.118,2.023,3.1,2.183,4.7,2.077,7.357-1.707,12.111-8.576,15.994-14.859,2.252-4.768,4.253-9.506,4.253-14.779,0-.64-.034-1.491-.088-2.131C670.69,5.16,677.9,8.462,677.9,8.462c5.632,1.864,17.626,11.051,21.67,12.809,1.974-2.291,5.214-5.751,7.042-7.482l-2.643-1.624c-4.231-2.582-8.7-5.032-13.108-7.456-10-5.459-18.136-3.541-22.277-2.05-1.628.586-3.117,1.091-3.117,1.091C662.39.4,657.35.714,653.634,1.619c-13.357,3.836-25.76,13.182-39.059,29.4-9.775,12.7-15.839,23.671-19.072,34.509-2.49,7.3-3.249,18.028,2.832,24.392,5.169,5.405,12.025,4.235,16.867,2.291,10.49-5.165,19.917-16.3,24.612-29.106,1.132-3.806,2.392-9.187.44-13.287ZM664.373,9.688c-1.39,15.924-13.766,25.27-16.829,26.016-1.855.373-5.023-.451-2.2-7.137,4.164-9,11.271-16.642,18.9-20.557A4.072,4.072,0,0,1,664.373,9.688Z" transform="translate(-460.344 -0.785)" fill="#e31e24" fill-rule="evenodd"/>
    <path id="Контур_3161" data-name="Контур 3161" d="M1136.895,11.067c-6.658,3.782-13.559,6.232-21.915,5.381-2.315,2.609-4.57,5.3-6.649,8.069,11.727,2.982,24.161-3.647,31.091-9.957A48.932,48.932,0,0,0,1150.519.18a58.324,58.324,0,0,1-13.625,10.889Z" transform="translate(-859.44 -0.141)" fill="#e31e24" fill-rule="evenodd"/>
    <path id="Контур_3162" data-name="Контур 3162" d="M628.032,107H619.3l-4.927,8.334H623.1Z" transform="translate(-476.406 -82.973)" fill="#e31e24" fill-rule="evenodd"/>
    <path id="Контур_3163" data-name="Контур 3163" d="M860.874,87.742c-.939.64-2.259.108-1.765-1.356,1.228-3.728,6.115-11.4,6.115-11.4l13.6-24.206h-9.32c-.442.8-1.39,2.45-1.39,2.45a12.593,12.593,0,0,0-2.252-2.636c-2.277-1.439-5.619-.746-7.925.559-10.02,5.859-17.33,17.442-23.1,26.469,0,0-6.07,10.038-9.438,10.784-2.63.213-2.358-3.328-2.246-4.154,1.017-5.964,3.382-11.637,5.76-16.775A129.481,129.481,0,0,0,844.3,54.91C855.2,44.5,864.379,32.7,865.722,30.067a21.442,21.442,0,0,1-3.169.346c-8.381,11.689-25.531,28.679-30.727,31.21,2.3-5.54,17.184-31.98,29.847-44.63l1.994-1.918c3.081-3.007,6.274-6.1,8.763-6.6.263-.027.6,0,.894.613.11,2.342-.761,4.074-1.76,6.045l-1.4,2.874a32.6,32.6,0,0,0,3.29-.8c1.514-2.85,3.191-6.045,2.574-9.852a2.829,2.829,0,0,0-2.253-2.371c-3.777-.719-7.9,2.077-11.208,4.341l-.133.079c-17.029,13.341-31.41,32.566-43.979,58.822-.912.692-4.433,1.518-5.03,1.118a42.769,42.769,0,0,0,3.588-9.719,25.491,25.491,0,0,0,.261-3.222c0-2.291-.55-4.446-2.6-5.937-2.407-1.2-5.383-.64-7.388.267-8.987,3.728-15.7,12.942-20.55,20.53-2.605,4.819-5.2,9.986-5.924,15.9-.508,4.633.523,7.615,3.157,9.106,2.708,1.386,6.119-.054,7.458-.746,9.1-4.794,15.466-14.406,20.478-23.193a29.592,29.592,0,0,0,5.008-.64.127.127,0,0,1,.085.027c-.119.4-1.188,3.6-1.188,3.6-3.18,9.319-4.648,15.659-1.646,19.411,4.289,5.3,11.39-.186,17.168-7.431-1.24,8.679,3.258,10.04,6.688,9.373,3.939-1.067,8.329-5.273,10.366-7.431-.654,2.529-.474,7.056,3.108,7.509,2.457.454,4.294-.8,6.422-1.942,7.631-4.154,16.762-18.082,19.133-21.915h-3.108c-3.373,4.981-7.66,11.691-13.056,14.859ZM792.39,86.731a4.333,4.333,0,0,1-.66-2.4c-.092-5.221,5.524-14.514,9.49-19.706h.009c1.662,3.86,5.426,6.018,7.7,7C806.1,77.917,796.426,91.418,792.39,86.731Zm18.127-17.869c-.269.186-5.014-1.41-5.928-5.8-.777-3.782,1.826-6.737,4.347-8.228a4.346,4.346,0,0,1,3.905-.719,3.949,3.949,0,0,1,1.41,3.514,21.753,21.753,0,0,1-.218,2.609s-.018.162-.023.186a35.452,35.452,0,0,1-3.492,8.441Zm38.057,16.189s-.9.8-.9.8c-1.28,1.145-2.6,2.371-4.186,1.758a1.6,1.6,0,0,1-.822-1.2c-.074-3.276,1.4-6.31,2.832-9.266l.366-.772c4.114-6.869,8.9-14.965,15.922-20.584,1.183-.853,2.468-1.572,3.822-1.011a1.987,1.987,0,0,1,.676,1.3,2.176,2.176,0,0,1-.225.719c-1.963,3.169-3.831,6.5-5.648,9.692-3.55,6.31-7.233,12.834-11.839,18.558Z" transform="translate(-605.37 -3.776)" fill="#e31e24" fill-rule="evenodd"/>
  </g>
</svg>
