<svg id="Слой_x0020_1" xmlns="http://www.w3.org/2000/svg" width="249.277" height="154.746" viewBox="0 0 249.277 154.746">
  <g id="_2809594257024" transform="translate(0)">
    <path id="Контур_3164" data-name="Контур 3164" d="M39.74,214.7h202.9L141.728,113.79Z" transform="translate(-20.943 -59.953)" fill="#7ec92f" fill-rule="evenodd"/>
    <g id="Сгруппировать_148" data-name="Сгруппировать 148">
      <path id="Контур_3165" data-name="Контур 3165" d="M212.748,28.085,207.7,23,230.888,0,238.1,7.267,229.544,23.5l16.8-7.92,6.941,7-23.188,23-5.318-5.361,12.24-12.14L220.5,35.9,217.21,32.58l8.005-16.5-12.467,12Zm97.994,98.78-15.273-15.4,23.188-23,15.32,15.448-4.684,4.646-9.6-9.675-3.776,3.747,7.57,7.632-4.878,4.835-7.523-7.584-5.067,5.025,9.505,9.586-4.779,4.741Zm-1.788-48.259-5.6-5.626L272.306,88.073l6.416,6.449L298.531,83.3,286.656,102.5l6.047,6.08L308.95,78.606ZM274.492,64.549l5.559-5.531c.189-.189,3.449,3.563,4.036,4.154a3.476,3.476,0,0,1-.293,4.67s-2.744,3.5-5.9.322a36.208,36.208,0,0,1-3.4-3.61Zm-18.5,7.083,5.687,5.715L274.283,64.8,269.7,69.365l6.558,6.591c3.108,3.123,11.757,1.992,15.727-5.474a9.519,9.519,0,0,0-1.831-10.816l-11.265-11.2Zm59.548,60.087,23.188-23,5.54,5.588-8.493,8.426,8.824,9.06,8.578-8.507,5.54,5.588-23.188,23-5.54-5.588,9.761-9.68-8.824-9.056-9.846,9.765-5.54-5.588ZM251,66.654l-15.273-15.4,23.183-23L274.231,43.7l-4.684,4.646-9.6-9.675-3.776,3.747,7.57,7.632-4.878,4.835L251.346,47.3l-5.067,5.025,9.505,9.586-4.779,4.741Z" transform="translate(-109.436)" fill-rule="evenodd"/>
      <path id="Контур_3166" data-name="Контур 3166" d="M51.411,125.463l-5.479-5.616c-.189-.194,3.785-3.6,4.41-4.206a3.564,3.564,0,0,1,4.783.227,3.822,3.822,0,0,1,.114,6.047,40.541,40.541,0,0,1-3.828,3.548Zm48.978-40.344-3.563,3.468-4.533-8.45,8.1,4.987Zm-.525,9.131,5.952-5.791L111.569,92l6.458-6.3L87.846,69.52l-5.976,5.829,14.374,31.605,6.851-6.685-3.231-6.023ZM38.395,163.341l16.2-15.8-4.447-4.556-10.281,10.03-4.939-5.062,8.242-8.038-4.656-4.769-8.242,8.043-4.235-4.339,9.945-9.7-4.447-4.556-16.148,15.75,23,23.008Zm19.616-19.01,6.075-5.924L51.666,125.68l4.514,4.627,7-6.832c3.321-3.241,2.474-12.093-5.048-16.044,0,0-5.578-3.019-11.166,2.053l-11.9,11.734,22.951,23.112ZM5.986,149.4.01,155.232l14.374,31.6,6.851-6.685-10.8-20.141,19.275,11.871,6.458-6.3L5.986,149.4Zm76.883-29.514,5.976-5.829L75.961,81.008,69.11,87.693l5.924,12.533-14.4-4.268-6.756,6.591,24.451,6.08Z" transform="translate(-0.01 -36.628)" fill-rule="evenodd"/>
    </g>
  </g>
</svg>
