<svg id="Слой_x0020_1" xmlns="http://www.w3.org/2000/svg" xmlns:xlink="http://www.w3.org/1999/xlink" width="321.061" height="100.512" viewBox="0 0 321.061 100.512">
  <defs>
    <linearGradient id="linear-gradient" x1="-0.048" y1="0.637" x2="1.426" y2="0.228" gradientUnits="objectBoundingBox">
      <stop offset="0" stop-color="#e22328"/>
      <stop offset="0.659" stop-color="#aa191d"/>
      <stop offset="0.769" stop-color="#720f11"/>
      <stop offset="0.812" stop-color="#720f11"/>
      <stop offset="1" stop-color="#720f11"/>
    </linearGradient>
    <linearGradient id="linear-gradient-2" x1="0.606" y1="-0.091" x2="0.23" y2="1.312" gradientUnits="objectBoundingBox">
      <stop offset="0" stop-color="#0e7cc1"/>
      <stop offset="0.651" stop-color="#083f62"/>
      <stop offset="0.89" stop-color="#010103"/>
      <stop offset="1" stop-color="#010103"/>
    </linearGradient>
    <linearGradient id="linear-gradient-3" x1="-0.049" y1="0.043" x2="1.049" y2="0.949" gradientUnits="objectBoundingBox">
      <stop offset="0" stop-color="#7c7c7c"/>
      <stop offset="0.29" stop-color="#b0b0b0"/>
      <stop offset="1" stop-color="#e5e5e5"/>
    </linearGradient>
  </defs>
  <g id="_2809073557744" transform="translate(0 0)">
    <path id="Контур_3167" data-name="Контур 3167" d="M203.23,165.872h12.906a38.35,38.35,0,0,1,5.477.168c4.053.547,8.177,2.34,8.177,7.244a6.275,6.275,0,0,1-5.361,6.672v.252c4.237.748,6.672,2.994,6.672,7.481,0,7.329-7,9.349-12.663,9.62-1.385.042-3.163.045-4.357.045H203.233v-31.48Zm9.041,25.5h3.677c3.117,0,6.17-.939,6.17-3.933,0-2.8-2.308-3.8-6.607-3.8h-3.244v7.733Zm.185-13.285H215.2c3.739,0,5.985-.744,5.985-3.176,0-1.933-1.376-3.056-5.05-3.056h-3.68Z" transform="translate(-137.443 -112.165)" fill="#005da3"/>
    <path id="Контур_3168" data-name="Контур 3168" d="M21.073,171.278C7.419,171.278,0,161.428,0,149.082c0-12.469,8.727-22.692,23.067-22.692a21.157,21.157,0,0,1,9.973,1.994v8.044a17.807,17.807,0,0,0-9.659-2.68c-9.727,0-13.531,7.17-13.531,14.712,0,8.413,4.739,15.085,12.654,15.085a19.4,19.4,0,0,0,9.731-2.616l2.37,6.358a24,24,0,0,1-13.528,3.991Zm153.983,0h0c-10.1,0-15.276-7.419-15.276-16.27,0-9.912,6.859-16.457,16.027-16.457,4.046,0,6.17.806,7.853,1.806v7.109a10.115,10.115,0,0,0-6.545-2.185c-5.176,0-8.355,3.8-8.355,9.294,0,4.924,2.431,9.724,8.229,9.724a14.385,14.385,0,0,0,6.112-1.81l2.12,5.794a20.721,20.721,0,0,1-10.161,3Zm27.929-25h0v24.378h-8.98V146.275h-8.727v-7.109h27.554l-2.243,7.109Zm43.137-3.428h0c0,10.97-.431,16.706-2.428,19.322a6.561,6.561,0,0,1-4.176,2.434l2.493,6.672a11.571,11.571,0,0,0,7.416-3.117c2.868-2.8,3.8-6.358,4.241-10.1a91.521,91.521,0,0,0,.625-10.223v-1.56h7.021v24.378h8.976V139.17H246.123v3.681ZM42.58,157.369h0c.188,4.244,4.176,6.863,8.352,6.863a18.852,18.852,0,0,0,8.918-2.247l1.994,5.675a22.82,22.82,0,0,1-12.4,3.616c-11.223,0-15.836-7.983-15.836-16.269,0-8.853,5.3-16.457,14.712-16.457,8.6,0,14.586,6.358,14.586,16.082v2.739Zm5.487-12.275h0c-3.619,0-5.675,3.24-5.675,6.112H53.738c-.188-3-1.871-6.112-5.675-6.112Zm56.357,12.275h0c.185,4.244,4.176,6.863,8.355,6.863a18.869,18.869,0,0,0,8.918-2.247l1.991,5.675a22.828,22.828,0,0,1-12.4,3.616c-11.223,0-15.836-7.983-15.836-16.269,0-8.853,5.3-16.457,14.716-16.457,8.6,0,14.586,6.358,14.586,16.082v2.739H104.424Zm5.487-12.275h0c-3.619,0-5.671,3.24-5.671,6.112h11.346C115.4,148.208,113.711,145.094,109.911,145.094Zm120.13,22.75h0a11.907,11.907,0,0,1-8.662,3.431c-5.989,0-10.475-3.991-10.475-10.226,0-6.672,5.361-10.1,13.34-10.349l5.3-.188v-.621c0-3.3-2.68-4.616-5.8-4.616a15.454,15.454,0,0,0-7.979,2.185l-2.742-5.487a21.807,21.807,0,0,1,12.715-3.428c8.293,0,12.718,3.3,12.718,11.6v20.51h-6.982l-1.437-2.81Zm-4.487-11.281h0c-3.865.126-5.675,1.434-5.675,3.8,0,2.434,1.687,3.93,4.739,3.93a7.742,7.742,0,0,0,4.862-1.434v-6.419l-3.927.123Zm-88.961,13.4h0v13.278l-8.976,2.745V139.17h7.542l1,2.868c2.308-1.81,4.985-3.49,8.478-3.49,7.235,0,12.906,5.484,12.906,15.46,0,9.355-5.61,17.27-14.9,17.27a12.95,12.95,0,0,1-6.047-1.311Zm0-21.322h0v14.9a6.622,6.622,0,0,0,3.868,1.246c6.108,0,8.1-5.548,8.1-10.909,0-6.484-2.12-8.789-5.733-8.789a8.725,8.725,0,0,0-6.235,3.551Z" transform="translate(0 -85.478)" fill="#005da3"/>
    <path id="Контур_3169" data-name="Контур 3169" d="M855.587,173.3V161.7l-8.977,2.748v30.111h11.469c8.355,0,16.146-2.243,16.146-10.909,0-7.358-6.293-10.349-14.026-10.349Zm0,15.023h0v-8.792h2.994c3.176,0,6.668.5,6.668,4.237,0,3.681-2.994,4.551-6.545,4.551h-3.121Z" transform="translate(-572.558 -109.358)" fill="#005da3"/>
    <path id="Контур_3170" data-name="Контур 3170" d="M863.047,5.916a38.885,38.885,0,0,0-6.568,3.768c-1.893,1.373-3.639,3.082-4.121,4.962s.207,4.211,1.194,6.328a41.624,41.624,0,0,0,3.926,6.461,5.906,5.906,0,0,1,.084-1.861c.4-1.832,1.955-3.477,3.648-4.781a30.664,30.664,0,0,1,4.3-2.748,47.16,47.16,0,0,1,9.708-3.778h0A47.5,47.5,0,0,1,885.5,12.5a31.049,31.049,0,0,0-.229-5.1c-.282-2.12-.929-4.286-2.315-5.552a6.079,6.079,0,0,0-1.6-1.013A59.388,59.388,0,0,0,872.02,2.7h0a59.725,59.725,0,0,0-8.963,3.211Z" transform="translate(-576.338 -0.569)" fill="url(#linear-gradient)"/>
    <path id="Контур_3171" data-name="Контур 3171" d="M955.917,15.845a41.192,41.192,0,0,0,.036-7.546c-.21-2.327-.855-4.684-2.234-6.044S949.964.327,947.63.126a38.453,38.453,0,0,0-7.568.149,6.106,6.106,0,0,1,1.6,1.013c1.385,1.266,2.033,3.431,2.314,5.552a31.063,31.063,0,0,1,.23,5.1,47.386,47.386,0,0,1-1.583,10.294v0a47.449,47.449,0,0,1-3.609,9.782,31.257,31.257,0,0,0,4.522,2.344c1.981.816,4.179,1.337,5.969.767a5.892,5.892,0,0,0,1.68-.877,59.754,59.754,0,0,0,3.053-9,59.365,59.365,0,0,0,1.68-9.41Z" transform="translate(-635.048 -0.004)" fill="url(#linear-gradient-2)"/>
    <path id="Контур_3172" data-name="Контур 3172" d="M881.969,76.724a59.056,59.056,0,0,1-7.251-6.15,58.7,58.7,0,0,1-6.283-7.183,5.91,5.91,0,0,1,.084-1.861c.4-1.832,1.955-3.477,3.648-4.781a30.7,30.7,0,0,1,4.3-2.748,47.048,47.048,0,0,0,6.659,8.008,47.311,47.311,0,0,0,8.135,6.526,31.267,31.267,0,0,0,4.522,2.344c1.981.816,4.179,1.337,5.969.767a5.887,5.887,0,0,0,1.68-.877,38.768,38.768,0,0,1-3.619,6.594c-1.343,1.942-3.04,3.739-4.927,4.26s-4.266-.142-6.413-1.114a38.942,38.942,0,0,1-6.5-3.784Z" transform="translate(-587.294 -36.521)" fill="url(#linear-gradient-3)"/>
  </g>
</svg>
