<?xml version="1.0" encoding="UTF-8" standalone="no"?>
<svg
   xmlns:dc="http://purl.org/dc/elements/1.1/"
   xmlns:cc="http://creativecommons.org/ns#"
   xmlns:rdf="http://www.w3.org/1999/02/22-rdf-syntax-ns#"
   xmlns:svg="http://www.w3.org/2000/svg"
   xmlns="http://www.w3.org/2000/svg"
   xmlns:sodipodi="http://sodipodi.sourceforge.net/DTD/sodipodi-0.dtd"
   xmlns:inkscape="http://www.inkscape.org/namespaces/inkscape"
   inkscape:version="1.0 (4035a4fb49, 2020-05-01)"
   sodipodi:docname="contact_icon_completed.svg"
   id="svg8"
   version="1.1"
   viewBox="0 0 61 45.262"
   height="45.262"
   width="61">
  <metadata
     id="metadata14">
    <rdf:RDF>
      <cc:Work
         rdf:about="">
        <dc:format>image/svg+xml</dc:format>
        <dc:type
           rdf:resource="http://purl.org/dc/dcmitype/StillImage" />
        <dc:title></dc:title>
      </cc:Work>
    </rdf:RDF>
  </metadata>
  <defs
     id="defs12" />
  <sodipodi:namedview
     inkscape:current-layer="Сгруппировать_289"
     inkscape:window-maximized="1"
     inkscape:window-y="-8"
     inkscape:window-x="1912"
     inkscape:cy="20.058232"
     inkscape:cx="33.955856"
     inkscape:zoom="9.3897749"
     showgrid="false"
     id="namedview10"
     inkscape:window-height="1017"
     inkscape:window-width="1920"
     inkscape:pageshadow="2"
     inkscape:pageopacity="0"
     guidetolerance="10"
     gridtolerance="10"
     objecttolerance="10"
     borderopacity="1"
     bordercolor="#666666"
     pagecolor="#ffffff" />
  <g
     transform="translate(-426 -2436.738)"
     data-name="Сгруппировать 289"
     id="Сгруппировать_289">
    <g
       style="fill:#247719;fill-opacity:1"
       transform="translate(444.056 2436.738)"
       id="Слой_x0020_1">
      <path
         style="fill:#247719;fill-opacity:1"
         fill="#00124d"
         transform="translate(0.01 0)"
         d="M11.8,2.5a1.181,1.181,0,0,1,0,2.362H3.532A1.173,1.173,0,0,0,2.352,6.047V22.574a1.179,1.179,0,0,0,.344.837,1.2,1.2,0,0,0,.837.344H20.06a1.179,1.179,0,0,0,1.181-1.181V14.31a1.181,1.181,0,1,1,2.362,0v8.264a3.543,3.543,0,0,1-3.542,3.542H3.532a3.525,3.525,0,0,1-2.5-1.038v-.005a3.526,3.526,0,0,1-1.038-2.5V6.047a3.525,3.525,0,0,1,1.038-2.5h.005A3.526,3.526,0,0,1,3.532,2.5H11.8ZM19.815,1.08a3.692,3.692,0,0,1,1.2-.8,3.66,3.66,0,0,1,4.01.8h.005a3.669,3.669,0,0,1,.8,4.011,3.638,3.638,0,0,1-.8,1.2L13.812,17.506a1.175,1.175,0,0,1-.612.324L8.541,19a1.179,1.179,0,0,1-1.427-1.444l1.177-4.707A1.18,1.18,0,0,1,8.6,12.3L19.815,1.08Zm2.1,1.38a1.322,1.322,0,0,0-.415.277l-11,11-.624,2.5,2.5-.624L23.356,4.62a1.332,1.332,0,0,0,.29-.429,1.307,1.307,0,0,0,.1-.506,1.324,1.324,0,0,0-.387-.937,1.307,1.307,0,0,0-.937-.387,1.345,1.345,0,0,0-.509.1Z"
         data-name="Контур 3383"
         id="Контур_3383" />
    </g>
    <text
       style="fill:#247719;fill-opacity:1;"
       font-weight="800"
       font-family="GothamPro-Black, Gotham Pro"
       font-size="12"
       fill="#00124d"
       transform="translate(426 2480)"
       id="CONTACT"><tspan
         style="fill:#247719;fill-opacity:1;"
         id="tspan4"
         y="0"
         x="0">CONTACT</tspan></text>
  </g>
</svg>
