<svg xmlns="http://www.w3.org/2000/svg" width="61" height="45.262" viewBox="0 0 61 45.262">
  <g id="Сгруппировать_289" data-name="Сгруппировать 289" transform="translate(-426 -2436.738)">
    <g id="Слой_x0020_1" transform="translate(444.056 2436.738)">
      <path id="Контур_3383" data-name="Контур 3383" d="M11.8,2.5a1.181,1.181,0,0,1,0,2.362H3.532A1.173,1.173,0,0,0,2.352,6.047V22.574a1.179,1.179,0,0,0,.344.837,1.2,1.2,0,0,0,.837.344H20.06a1.179,1.179,0,0,0,1.181-1.181V14.31a1.181,1.181,0,1,1,2.362,0v8.264a3.543,3.543,0,0,1-3.542,3.542H3.532a3.525,3.525,0,0,1-2.5-1.038v-.005a3.526,3.526,0,0,1-1.038-2.5V6.047a3.525,3.525,0,0,1,1.038-2.5h.005A3.526,3.526,0,0,1,3.532,2.5H11.8ZM19.815,1.08a3.692,3.692,0,0,1,1.2-.8,3.66,3.66,0,0,1,4.01.8h.005a3.669,3.669,0,0,1,.8,4.011,3.638,3.638,0,0,1-.8,1.2L13.812,17.506a1.175,1.175,0,0,1-.612.324L8.541,19a1.179,1.179,0,0,1-1.427-1.444l1.177-4.707A1.18,1.18,0,0,1,8.6,12.3L19.815,1.08Zm2.1,1.38a1.322,1.322,0,0,0-.415.277l-11,11-.624,2.5,2.5-.624L23.356,4.62a1.332,1.332,0,0,0,.29-.429,1.307,1.307,0,0,0,.1-.506,1.324,1.324,0,0,0-.387-.937,1.307,1.307,0,0,0-.937-.387,1.345,1.345,0,0,0-.509.1Z" transform="translate(0.01 0)" fill="#00124d"/>
    </g>
    <text id="CONTACT" transform="translate(426 2480)" fill="#00124d" font-size="12" font-family="GothamPro-Black, Gotham Pro" font-weight="800"><tspan x="0" y="0">CONTACT</tspan></text>
  </g>
</svg>
