<svg id="Сгруппировать_399" data-name="Сгруппировать 399" xmlns="http://www.w3.org/2000/svg" width="1920" height="1080" viewBox="0 0 1920 1080">
  <rect id="Прямоугольник_371" data-name="Прямоугольник 371" width="1920" height="1080" fill="#fff"/>
  <path id="Контур_3420" data-name="Контур 3420" d="M0,0H1920V30.592H0Z" transform="translate(0 1030.191)" fill="#e9e9e9"/>
  <g id="Слой_x0020_1" transform="translate(1920 870) rotate(90)">
    <path id="Контур_3416" data-name="Контур 3416" d="M158.551,3.231c.536-.949,1.092-1.9,1.642-2.846L165.086.4c-.962,1.635-1.917,3.277-2.839,4.913a77.944,77.944,0,0,0-.353,76.411c3.552,6.424,7.516,12.834,11.349,19.036,12.383,20.056,24.1,39.02,24.046,59.449q0,.579-.02,1.158c-.288,11.5-4.226,22.4-9.806,33.257l-3.153-3.166c5-9.963,8.465-19.912,8.733-30.2.412-19.6-11.12-38.392-23.405-58.271-3.853-6.241-7.843-12.7-11.448-19.212a82.156,82.156,0,0,1,.366-80.545ZM33.126,2.924c.536-.949,1.1-1.9,1.642-2.846l4.893.013C38.7,1.727,37.744,3.369,36.815,5a78.95,78.95,0,0,0-9.537,28.658l-3.7-3.722A83.553,83.553,0,0,1,33.119,2.924Zm94.073.229c.536-.949,1.1-1.9,1.648-2.846l4.893.013Q132.288,2.774,130.9,5.24a77.944,77.944,0,0,0-.353,76.411c3.559,6.424,7.516,12.834,11.349,19.036,12.383,20.056,24.1,39.02,24.046,59.449q0,.579-.02,1.158a57.409,57.409,0,0,1-1.249,10.427l-3.63-3.65a53.831,53.831,0,0,0,.648-6.882c.445-19.6-11.127-38.392-23.405-58.271-3.859-6.241-7.843-12.7-11.454-19.212A82.173,82.173,0,0,1,127.2,3.16Zm15.68.039c.536-.949,1.092-1.9,1.642-2.846l4.9.013q-1.452,2.453-2.846,4.919a77.944,77.944,0,0,0-.353,76.411c3.559,6.424,7.516,12.834,11.343,19.036,12.4,20.056,24.1,39.02,24.053,59.449q0,.579-.02,1.158a66.3,66.3,0,0,1-4.9,22.476l-3.3-3.317a60.4,60.4,0,0,0,3.958-19.271c.458-19.6-11.127-38.392-23.405-58.271-3.853-6.241-7.843-12.7-11.454-19.212a82.173,82.173,0,0,1,.366-80.545ZM204.2,211.433c1.818-2.917,3.6-5.815,5.312-8.707l-.02,8.223q-1.1,1.786-2.218,3.572l-3.068-3.088ZM17.453,2.885c.53-.949,1.092-1.9,1.642-2.846l4.893.013c-.968,1.635-1.917,3.277-2.846,4.913A79.871,79.871,0,0,0,14.417,20.73l-3.4-3.408A84.742,84.742,0,0,1,17.446,2.885ZM3.415,0,8.308.013Q6.855,2.466,5.469,4.932C4.638,6.4,3.866,7.9,3.133,9.4L0,6.247c.569-1.138,1.138-2.276,1.766-3.4q.8-1.423,1.642-2.846ZM174.238,3.264c.53-.949,1.086-1.9,1.642-2.846l4.886.013c-.962,1.635-1.917,3.277-2.839,4.913a77.927,77.927,0,0,0-.353,76.411c3.559,6.424,7.523,12.834,11.349,19.036,8.36,13.541,16.4,26.584,20.736,39.916l-.092,39.026c-2.806,8.432-7.1,16.687-12.023,25.014l-3.094-3.114c7.843-13.41,13.92-26.578,14.267-40.341.451-19.611-11.12-38.385-23.4-58.271-3.859-6.247-7.843-12.7-11.454-19.212a82.123,82.123,0,0,1,.373-80.545Zm-125.432-.3Q49.62,1.531,50.448.118l4.893.013c-.962,1.635-1.917,3.277-2.839,4.913a78.331,78.331,0,0,0-9.976,43.932L38.11,44.541a82.8,82.8,0,0,1,10.7-41.577Zm141.105.34c.536-.949,1.092-1.9,1.648-2.846l4.893.013c-.968,1.635-1.917,3.277-2.839,4.913a77.928,77.928,0,0,0-.353,76.411c3.559,6.424,7.516,12.834,11.343,19.036q2.61,4.219,5.142,8.38l-.02,8.288c-2.754-4.769-5.717-9.57-8.726-14.444-3.853-6.241-7.843-12.7-11.448-19.212A82.139,82.139,0,0,1,189.918,3.3Zm15.68.039c.536-.955,1.092-1.9,1.642-2.846L210,.5l-.007,3.7c-.236.406-.478.818-.706,1.223a77.927,77.927,0,0,0-.353,76.411c.281.51.582,1.02.87,1.531l-.02,8.419c-1.557-2.617-3.094-5.246-4.559-7.889A82.156,82.156,0,0,1,205.6,3.349ZM80.165,3.035c.536-.955,1.092-1.9,1.648-2.846L86.707.2c-.968,1.635-1.923,3.277-2.846,4.913a77.927,77.927,0,0,0-.353,76.411c3.559,6.424,7.516,12.834,11.343,19.036.536.877,1.079,1.74,1.609,2.61l-12.8-12.854c-1.321-2.231-2.623-4.474-3.873-6.731a82.156,82.156,0,0,1,.366-80.545Zm31.36.078c.53-.949,1.092-1.9,1.642-2.846l4.893.013c-.968,1.635-1.917,3.277-2.839,4.913a77.928,77.928,0,0,0-.36,76.411c3.559,6.424,7.516,12.834,11.349,19.036,11.788,19.081,22.941,37.182,23.955,56.492l-4.762-4.788c-2.479-16.484-12.363-32.589-22.8-49.479-3.846-6.241-7.837-12.7-11.448-19.212a82.14,82.14,0,0,1,.373-80.545Zm-15.68-.039c.536-.949,1.092-1.9,1.642-2.846l4.893.013c-.975,1.635-1.917,3.277-2.846,4.913a77.927,77.927,0,0,0-.353,76.411C102.74,87.989,106.7,94.4,110.524,100.6c7.595,12.3,14.928,24.19,19.461,36.259l-8.262-8.3c-4.16-8.478-9.413-17-14.8-25.734-3.859-6.241-7.843-12.7-11.448-19.212a82.156,82.156,0,0,1,.366-80.545ZM64.486,3c.536-.955,1.092-1.9,1.642-2.846L71.02.164C70.059,1.8,69.1,3.441,68.181,5.076a77.918,77.918,0,0,0-5.972,63.668L56,62.5A82.228,82.228,0,0,1,64.492,3Z" transform="translate(0 0)" fill="#fff" fill-rule="evenodd"/>
  </g>
</svg>
