<?xml version="1.0" encoding="UTF-8" standalone="no"?>
<svg
   xmlns:dc="http://purl.org/dc/elements/1.1/"
   xmlns:cc="http://creativecommons.org/ns#"
   xmlns:rdf="http://www.w3.org/1999/02/22-rdf-syntax-ns#"
   xmlns:svg="http://www.w3.org/2000/svg"
   xmlns="http://www.w3.org/2000/svg"
   xmlns:sodipodi="http://sodipodi.sourceforge.net/DTD/sodipodi-0.dtd"
   xmlns:inkscape="http://www.inkscape.org/namespaces/inkscape"
   inkscape:version="1.0 (4035a4fb49, 2020-05-01)"
   sodipodi:docname="pdf_icon_disabled.svg"
   id="svg8"
   version="1.1"
   viewBox="0 0 26.201 45.262"
   height="45.262"
   width="26.201">
  <metadata
     id="metadata14">
    <rdf:RDF>
      <cc:Work
         rdf:about="">
        <dc:format>image/svg+xml</dc:format>
        <dc:type
           rdf:resource="http://purl.org/dc/dcmitype/StillImage" />
        <dc:title></dc:title>
      </cc:Work>
    </rdf:RDF>
  </metadata>
  <defs
     id="defs12" />
  <sodipodi:namedview
     inkscape:current-layer="Сгруппировать_287"
     inkscape:window-maximized="1"
     inkscape:window-y="-8"
     inkscape:window-x="1912"
     inkscape:cy="25.628689"
     inkscape:cx="3.7563746"
     inkscape:zoom="13.279147"
     showgrid="false"
     id="namedview10"
     inkscape:window-height="1017"
     inkscape:window-width="1920"
     inkscape:pageshadow="2"
     inkscape:pageopacity="0"
     guidetolerance="10"
     gridtolerance="10"
     objecttolerance="10"
     borderopacity="1"
     bordercolor="#666666"
     pagecolor="#ffffff" />
  <g
     transform="translate(-376.799 -2436.738)"
     data-name="Сгруппировать 287"
     id="Сгруппировать_287">
    <g
       style="fill:#4d4d4d"
       transform="translate(376.799 2436.738)"
       id="Слой_x0020_1">
      <path
         style="fill:#4d4d4d"
         fill="#00124d"
         transform="translate(-0.01 0.03)"
         d="M23.514,16.948a1.306,1.306,0,0,1,2.613,0v5.222a3.917,3.917,0,0,1-3.918,3.917H3.928a3.9,3.9,0,0,1-2.764-1.147H1.158A3.906,3.906,0,0,1,.01,22.169l0-5.222a1.3,1.3,0,0,1,2.6,0v5.222A1.321,1.321,0,0,0,3,23.092a1.293,1.293,0,0,0,.923.382H22.207a1.3,1.3,0,0,0,1.3-1.3V16.948Zm-9.99,1.223c-.017.007-.034.013-.053.019h0l-.026.009h0a1.362,1.362,0,0,1-.276.05h-.189a1.344,1.344,0,0,1-.276-.05h0l-.027-.009h0c-.019-.006-.036-.011-.053-.019h-.006l-.017-.007h0l-.02-.009-.01,0-.024-.011h0l-.024-.011-.009,0-.024-.011h0a1.315,1.315,0,0,1-.306-.217l-.023-.021L5.614,11.34A1.306,1.306,0,0,1,7.462,9.493l4.3,4.3V1.276a1.306,1.306,0,0,1,2.613,0V13.792l4.3-4.3a1.306,1.306,0,0,1,1.847,1.847l-6.529,6.529a1.289,1.289,0,0,1-.356.253h0c-.019.009-.036.017-.054.024l-.006,0-.023.01h0l-.017.007h-.006Z"
         data-name="Контур 3382"
         id="Контур_3382" />
    </g>
    <text
       style="fill:#4d4d4d;"
       font-weight="800"
       font-family="GothamPro-Black, Gotham Pro"
       font-size="12"
       fill="#00124d"
       transform="translate(377 2480)"
       id="PDF"><tspan
         style="fill:#4d4d4d;"
         id="tspan4"
         y="0"
         x="0">PDF</tspan></text>
  </g>
</svg>
