<svg xmlns="http://www.w3.org/2000/svg" width="47.427" height="54.203" viewBox="0 0 47.427 54.203">
  <g id="Сгруппировать_156" data-name="Сгруппировать 156" transform="translate(0 0)">
    <path id="Контур_3373" data-name="Контур 3373" d="M22.717,0H51.5L66.756,15.2V50.815A3.388,3.388,0,0,1,63.369,54.2H22.717a3.388,3.388,0,0,1-3.388-3.388V3.388A3.388,3.388,0,0,1,22.717,0Z" transform="translate(-19.329 0)" fill="#ff414a"/>
    <path id="Контур_3374" data-name="Контур 3374" d="M218.152,15.4H206.345a3.389,3.389,0,0,1-3.388-3.388V.193Z" transform="translate(-170.774 -0.159)" fill="#b50d15"/>
    <path id="Контур_3375" data-name="Контур 3375" d="M109.924,137.37a.985.985,0,0,0,0-1.95h-3.232a1.01,1.01,0,0,0-.984,1.1v7.942c0,.708.4,1.1.949,1.1s.947-.393.947-1.1v-2.18h1.955a.918.918,0,0,0,.91-.989.9.9,0,0,0-.91-.962H107.6V137.37ZM99,135.42H96.636a1.046,1.046,0,0,0-1.1,1.094v7.956a1.042,1.042,0,0,0,1.125,1.065h2.482a4.6,4.6,0,0,0,4.876-4.916C104.02,137.466,102.194,135.42,99,135.42Zm.114,8.154H97.673v-6.193h1.3c1.967,0,2.822,1.32,2.822,3.14C101.794,142.226,100.954,143.574,99.114,143.574Zm-8.662-8.154H88.11a.985.985,0,0,0-1.032,1.1v7.942a1,1,0,1,0,1.985,0v-2.319h1.469A3.207,3.207,0,0,0,93.84,138.8,3.244,3.244,0,0,0,90.452,135.42Zm-.039,4.861h-1.35v-3h1.35a1.5,1.5,0,0,1,0,3Z" transform="translate(-75.204 -111.686)" fill="#fff"/>
  </g>
</svg>
