<?xml version="1.0" encoding="UTF-8" standalone="no"?>
<svg
   xmlns:dc="http://purl.org/dc/elements/1.1/"
   xmlns:cc="http://creativecommons.org/ns#"
   xmlns:rdf="http://www.w3.org/1999/02/22-rdf-syntax-ns#"
   xmlns:svg="http://www.w3.org/2000/svg"
   xmlns="http://www.w3.org/2000/svg"
   xmlns:sodipodi="http://sodipodi.sourceforge.net/DTD/sodipodi-0.dtd"
   xmlns:inkscape="http://www.inkscape.org/namespaces/inkscape"
   inkscape:version="1.0 (4035a4fb49, 2020-05-01)"
   sodipodi:docname="zoom_icon_disabled.svg"
   id="svg8"
   version="1.1"
   viewBox="0 0 39 45.262"
   height="45.262"
   width="39">
  <metadata
     id="metadata14">
    <rdf:RDF>
      <cc:Work
         rdf:about="">
        <dc:format>image/svg+xml</dc:format>
        <dc:type
           rdf:resource="http://purl.org/dc/dcmitype/StillImage" />
        <dc:title></dc:title>
      </cc:Work>
    </rdf:RDF>
  </metadata>
  <defs
     id="defs12" />
  <sodipodi:namedview
     inkscape:current-layer="Слой_x0020_1"
     inkscape:window-maximized="1"
     inkscape:window-y="-8"
     inkscape:window-x="1912"
     inkscape:cy="-7.9367899"
     inkscape:cx="20.405838"
     inkscape:zoom="3.3197867"
     showgrid="false"
     id="namedview10"
     inkscape:window-height="1017"
     inkscape:window-width="1920"
     inkscape:pageshadow="2"
     inkscape:pageopacity="0"
     guidetolerance="10"
     gridtolerance="10"
     objecttolerance="10"
     borderopacity="1"
     bordercolor="#666666"
     pagecolor="#ffffff" />
  <g
     transform="translate(-300 -2436.738)"
     data-name="Сгруппировать 288"
     id="Сгруппировать_288">
    <g
       transform="translate(305.907 2436.738)"
       id="Слой_x0020_1">
      <path
         style="fill:#4d4d4d"
         fill="#00124d"
         transform="translate(0)"
         d="M3.918,0h20.9a3.9,3.9,0,0,1,2.765,1.147h.005a3.907,3.907,0,0,1,1.147,2.771l-.005,13.061h0a3.92,3.92,0,0,1-3.917,3.913l-9.143,0v2.615H19.59a1.306,1.306,0,0,1,0,2.612H9.143a1.306,1.306,0,0,1,0-2.612h3.918V20.895l-9.143,0A3.9,3.9,0,0,1,1.153,19.75H1.147A3.907,3.907,0,0,1,0,16.979V3.919A3.9,3.9,0,0,1,1.147,1.154l.005-.005A3.9,3.9,0,0,1,3.918,0Zm10.37,18.288.079,0,.079,0,10.37,0a1.305,1.305,0,0,0,.922-.388h.005a1.3,1.3,0,0,0,.378-.922l.005-13.062a1.328,1.328,0,0,0-.388-.924,1.292,1.292,0,0,0-.924-.382H3.919A1.3,1.3,0,0,0,2.613,3.918V16.979a1.308,1.308,0,0,0,1.306,1.307l10.37,0Z"
         data-name="Контур 3381"
         id="Контур_3381" />
    </g>
    <text
       style="fill:#4d4d4d;"
       font-weight="800"
       font-family="GothamPro-Black, Gotham Pro"
       font-size="12"
       fill="#00124d"
       transform="translate(300 2480)"
       id="ZOOM"><tspan
         style="fill:#4d4d4d;"
         id="tspan4"
         y="0"
         x="0">ZOOM</tspan></text>
  </g>
</svg>
