<?xml version="1.0" encoding="UTF-8" standalone="no"?>
<svg
   xmlns:dc="http://purl.org/dc/elements/1.1/"
   xmlns:cc="http://creativecommons.org/ns#"
   xmlns:rdf="http://www.w3.org/1999/02/22-rdf-syntax-ns#"
   xmlns:svg="http://www.w3.org/2000/svg"
   xmlns="http://www.w3.org/2000/svg"
   xmlns:sodipodi="http://sodipodi.sourceforge.net/DTD/sodipodi-0.dtd"
   xmlns:inkscape="http://www.inkscape.org/namespaces/inkscape"
   inkscape:version="1.0 (4035a4fb49, 2020-05-01)"
   sodipodi:docname="zoomfondo_black_and_white.svg"
   id="svg10"
   version="1.1"
   viewBox="0 0 58.223 50.621"
   height="50.621"
   width="58.223">
  <metadata
     id="metadata16">
    <rdf:RDF>
      <cc:Work
         rdf:about="">
        <dc:format>image/svg+xml</dc:format>
        <dc:type
           rdf:resource="http://purl.org/dc/dcmitype/StillImage" />
        <dc:title></dc:title>
      </cc:Work>
    </rdf:RDF>
  </metadata>
  <defs
     id="defs14" />
  <sodipodi:namedview
     inkscape:current-layer="zoomfondo-blanco-vertical-seeklogo"
     inkscape:window-maximized="1"
     inkscape:window-y="-8"
     inkscape:window-x="1912"
     inkscape:cy="35.24807"
     inkscape:cx="22.730096"
     inkscape:zoom="8.3957254"
     showgrid="false"
     id="namedview12"
     inkscape:window-height="1017"
     inkscape:window-width="1920"
     inkscape:pageshadow="2"
     inkscape:pageopacity="0"
     guidetolerance="10"
     gridtolerance="10"
     objecttolerance="10"
     borderopacity="1"
     bordercolor="#666666"
     pagecolor="#ffffff" />
  <g
     transform="translate(0 0)"
     id="zoomfondo-blanco-vertical-seeklogo">
    <path
       style="fill:#808080"
       fill="#2d8cff"
       transform="translate(-1161.179 -96.759)"
       d="M1161.2,134.311h10.529s2.063.053,1.8,2.54l-7.778,7.831h5.873a2.256,2.256,0,0,1,2.592,2.645h-10.106s-2.169.106-2.222-2.645l7.83-7.778h-5.873S1160.886,136.9,1161.2,134.311Z"
       data-name="Контур 3366"
       id="Контур_3366" />
    <path
       style="fill:#808080"
       fill="#2d8cff"
       transform="translate(-1286.723 277.703)"
       d="M1332-261.36a16.343,16.343,0,0,0-16.343-16.343,16.343,16.343,0,0,0-16.343,16.343,16.342,16.342,0,0,0,16.343,16.342A16.343,16.343,0,0,0,1332-261.36Z"
       data-name="Контур 3367"
       id="Контур_3367" />
    <path
       style="fill:#808080"
       fill="#2d8cff"
       transform="translate(-1284.483 -96.231)"
       d="M1303.409,144.26a3.969,3.969,0,1,1,3.968-3.968A3.969,3.969,0,0,1,1303.409,144.26Zm6.562-3.968a6.561,6.561,0,1,0-6.561,6.561A6.561,6.561,0,0,0,1309.97,140.291Z"
       data-name="Контур 3368"
       id="Контур_3368" />
    <path
       style="fill:#808080"
       fill="#2d8cff"
       transform="translate(-1421.667 -96.231)"
       d="M1454.351,144.26a3.969,3.969,0,1,1,3.969-3.968A3.969,3.969,0,0,1,1454.351,144.26Zm6.56-3.968a6.561,6.561,0,1,0-6.561,6.561A6.561,6.561,0,0,0,1460.911,140.291Z"
       data-name="Контур 3369"
       id="Контур_3369" />
    <path
       style="fill:#808080"
       fill="#2d8cff"
       transform="translate(-1558.696 -95.756)"
       d="M1598.56,133.255v13.069a2.116,2.116,0,0,0,2.592-2.17v-5.608a2.765,2.765,0,0,1,2.7-2.7,2.692,2.692,0,0,1,2.593,2.593v5.767a2.317,2.317,0,0,0,2.7,2.117v-7.831s.053-2.8,2.7-2.646a2.542,2.542,0,0,1,2.381,2.222v5.45s-.212,3.122,2.7,2.8v-8.043a5.314,5.314,0,0,0-4.815-5.027s-2.963-.106-4.365,1.8c0,0-3.1-3.514-6.8-.847A3.914,3.914,0,0,0,1598.56,133.255Z"
       data-name="Контур 3370"
       id="Контур_3370" />
    <path
       fill="#fff"
       transform="translate(-1344.305 174.096)"
       d="M1362.669-163.706h12.036s2.936.294,3.034,2.642v9.1h-11.645a2.981,2.981,0,0,1-3.425-3.034v-8.709Z"
       data-name="Контур 3371"
       id="Контур_3371" />
    <path
       fill="#fff"
       transform="translate(-1501.41 174.096)"
       d="M1540.716-163.706v11.757l-5.186-3.439v-4.8Z"
       data-name="Контур 3372"
       id="Контур_3372" />
  </g>
</svg>
