<svg xmlns="http://www.w3.org/2000/svg" width="39" height="45.262" viewBox="0 0 39 45.262">
  <g id="Сгруппировать_288" data-name="Сгруппировать 288" transform="translate(-300 -2436.738)">
    <g id="Слой_x0020_1" transform="translate(305.907 2436.738)">
      <path id="Контур_3381" data-name="Контур 3381" d="M3.918,0h20.9a3.9,3.9,0,0,1,2.765,1.147h.005a3.907,3.907,0,0,1,1.147,2.771l-.005,13.061h0a3.92,3.92,0,0,1-3.917,3.913l-9.143,0v2.615H19.59a1.306,1.306,0,0,1,0,2.612H9.143a1.306,1.306,0,0,1,0-2.612h3.918V20.895l-9.143,0A3.9,3.9,0,0,1,1.153,19.75H1.147A3.907,3.907,0,0,1,0,16.979V3.919A3.9,3.9,0,0,1,1.147,1.154l.005-.005A3.9,3.9,0,0,1,3.918,0Zm10.37,18.288.079,0,.079,0,10.37,0a1.305,1.305,0,0,0,.922-.388h.005a1.3,1.3,0,0,0,.378-.922l.005-13.062a1.328,1.328,0,0,0-.388-.924,1.292,1.292,0,0,0-.924-.382H3.919A1.3,1.3,0,0,0,2.613,3.918V16.979a1.308,1.308,0,0,0,1.306,1.307l10.37,0Z" transform="translate(0)" fill="#00124d"/>
    </g>
    <text id="ZOOM" transform="translate(300 2480)" fill="#00124d" font-size="12" font-family="GothamPro-Black, Gotham Pro" font-weight="800"><tspan x="0" y="0">ZOOM</tspan></text>
  </g>
</svg>
